<svg xmlns="http://www.w3.org/2000/svg" viewBox="0 0 800 450" role="img" aria-label="CRISPR: Rewriting the Code of Life">
  <defs>
    <linearGradient id="bg" x1="0" y1="0" x2="1" y2="1">
      <stop offset="0" stop-color="#0b1124"/>
      <stop offset="1" stop-color="#0b1f2c"/>
    </linearGradient>
    <linearGradient id="ac" x1="0" y1="0" x2="1" y2="0">
      <stop offset="0" stop-color="#3dffb5"/>
      <stop offset="1" stop-color="#8a6bff"/>
    </linearGradient>
    <radialGradient id="glow" cx="0.5" cy="0.5" r="0.5">
      <stop offset="0" stop-color="#3dffb5" stop-opacity="0.22"/>
      <stop offset="1" stop-color="#3dffb5" stop-opacity="0"/>
    </radialGradient>
  </defs>
  <rect width="800" height="450" fill="url(#bg)"/>
  <g stroke="#ffffff" stroke-opacity="0.035" stroke-width="1">
    <line x1="80" y1="0" x2="80" y2="450"/>
    <line x1="160" y1="0" x2="160" y2="450"/>
    <line x1="240" y1="0" x2="240" y2="450"/>
    <line x1="320" y1="0" x2="320" y2="450"/>
    <line x1="400" y1="0" x2="400" y2="450"/>
    <line x1="480" y1="0" x2="480" y2="450"/>
    <line x1="560" y1="0" x2="560" y2="450"/>
    <line x1="640" y1="0" x2="640" y2="450"/>
    <line x1="720" y1="0" x2="720" y2="450"/>
    <line x1="0" y1="75" x2="800" y2="75"/>
    <line x1="0" y1="150" x2="800" y2="150"/>
    <line x1="0" y1="225" x2="800" y2="225"/>
    <line x1="0" y1="300" x2="800" y2="300"/>
    <line x1="0" y1="375" x2="800" y2="375"/>
  </g>
  <g>
    <circle cx="62" cy="58" r="1.4" fill="#ffffff" opacity="0.5"/>
    <circle cx="148" cy="330" r="1.0" fill="#ffffff" opacity="0.5"/>
    <circle cx="216" cy="96" r="1.2" fill="#ffffff" opacity="0.5"/>
    <circle cx="300" cy="388" r="1.0" fill="#ffffff" opacity="0.5"/>
    <circle cx="372" cy="52" r="1.4" fill="#ffffff" opacity="0.5"/>
    <circle cx="468" cy="396" r="1.1" fill="#ffffff" opacity="0.5"/>
    <circle cx="540" cy="70" r="1.0" fill="#ffffff" opacity="0.5"/>
    <circle cx="624" cy="350" r="1.3" fill="#ffffff" opacity="0.5"/>
    <circle cx="700" cy="110" r="1.2" fill="#ffffff" opacity="0.5"/>
    <circle cx="752" cy="296" r="1.0" fill="#ffffff" opacity="0.5"/>
    <circle cx="96" cy="210" r="1.0" fill="#ffffff" opacity="0.5"/>
    <circle cx="716" cy="196" r="1.4" fill="#ffffff" opacity="0.5"/>
  </g>
  <circle cx="400" cy="218" r="215" fill="url(#glow)"/>
  <g stroke="url(#ac)" fill="none" stroke-width="3" stroke-linecap="round" stroke-linejoin="round">
    <polyline points="260,233 266,244 272,253 278,260 284,263 290,264 296,261 302,255 308,246 314,235 320,223 326,210 332,197 338,185 344,175 350,167 356,162 362,160 368,161 374,166 380,173 386,183 392,195 398,208 404,221 410,233 416,244 422,253 428,260 434,263 440,264 446,261 452,255 458,246 464,235 470,223 476,210 482,197 488,185 494,175 500,167 506,162 512,160 518,161 524,166 530,173 536,183"/>
    <polyline points="260,191 266,180 272,171 278,164 284,161 290,160 296,163 302,169 308,178 314,189 320,201 326,214 332,227 338,239 344,249 350,257 356,262 362,264 368,263 374,258 380,251 386,241 392,229 398,216 404,203 410,191 416,180 422,171 428,164 434,161 440,160 446,163 452,169 458,178 464,189 470,201 476,214 482,227 488,239 494,249 500,257 506,262 512,264 518,263 524,258 530,251 536,241"/>
    <line x1="270" y1="251" x2="270" y2="173" stroke-width="2" opacity="0.7"/>
    <line x1="294" y1="262" x2="294" y2="162" stroke-width="2" opacity="0.7"/>
    <line x1="318" y1="227" x2="318" y2="197" stroke-width="2" opacity="0.7"/>
    <line x1="342" y1="178" x2="342" y2="246" stroke-width="2" opacity="0.7"/>
    <line x1="462" y1="239" x2="462" y2="185" stroke-width="2" opacity="0.7"/>
    <line x1="486" y1="189" x2="486" y2="235" stroke-width="2" opacity="0.7"/>
    <line x1="510" y1="160" x2="510" y2="264" stroke-width="2" opacity="0.7"/>
    <line x1="534" y1="180" x2="534" y2="244" stroke-width="2" opacity="0.7"/>
    <line x1="368" y1="148" x2="432" y2="282" stroke-width="2.6"/>
    <line x1="432" y1="148" x2="368" y2="282" stroke-width="2.6"/>
    <circle cx="356" cy="136" r="11" stroke-width="2.6"/>
    <circle cx="444" cy="136" r="11" stroke-width="2.6"/>
  </g>
  <text x="36" y="414" font-family="Arial, Helvetica, sans-serif" font-size="13" letter-spacing="4" fill="#9aa7c0">GENE EDITING</text>
  <text x="764" y="414" text-anchor="end" font-family="Arial, Helvetica, sans-serif" font-size="11" letter-spacing="2" fill="#5d6b85">SCIENCE &amp; TECH VOICES</text>
</svg>
